Coordinates
version=1
nRows=13
nColumns=34
inDegrees=yes

Units are S.I. units (second, meters, Newtons, ...)
If the header above contains a line with 'inDegrees', this indicates whether rotational values are in degrees (yes) or radians (no).

endheader
time	pelvis_tilt	pelvis_list	pelvis_rotation	pelvis_tx	pelvis_ty	pelvis_tz	hip_flexion_r	hip_adduction_r	hip_rotation_r	knee_angle_r	ankle_angle_r	subtalar_angle_r	mtp_angle_r	hip_flexion_l	hip_adduction_l	hip_rotation_l	knee_angle_l	ankle_angle_l	subtalar_angle_l	mtp_angle_l	lumbar_extension	lumbar_bending	lumbar_rotation	arm_flex_r	arm_add_r	arm_rot_r	elbow_flex_r	pro_sup_r	arm_flex_l	arm_add_l	arm_rot_l	elbow_flex_l	pro_sup_l
      2.70000000	     -4.51118793	      2.03184004	     -0.44333596	     -0.64469054	      0.76190979	     -0.18291795	     52.10780682	     -9.27817949	     -2.58126144	     79.87272780	     33.98572938	     -6.89106013	      0.00000000	     48.88487922	     -8.66591595	    -11.29146919	     77.54499023	     34.41691082	      3.37454992	      0.00000000	    -52.72431906	     -0.72819849	      0.74515773	     22.62507586	    -10.73906894	     -7.61232656	     35.16642229	     83.75657171	     18.99850577	    -14.07325945	     10.78760227	     37.56558148	     91.54714650
      2.71666670	     -4.21727072	      2.07669217	     -0.63298739	     -0.64177640	      0.75903841	     -0.18190859	     52.15562078	     -9.24225711	     -2.35147938	     80.57865459	     34.10260201	     -7.10415642	      0.00000000	     48.73706081	     -8.66479995	    -11.11364094	     78.14913214	     35.05192026	      3.22045155	      0.00000000	    -53.68955242	     -0.85063037	      0.77240196	     23.04267120	    -10.83751899	     -7.67950537	     35.22680667	     83.86251036	     19.43945740	    -14.18050116	     10.79194639	     37.43856891	     91.66699563
      2.73333330	     -3.67562120	      2.27603830	     -0.92299263	     -0.64169254	      0.75728826	     -0.18270290	     51.87635380	     -9.24631786	     -1.88119819	     81.17528061	     34.08709587	     -7.32361020	      0.00000000	     48.16542239	     -8.65555378	    -11.34924220	     78.56767246	     35.79218558	      3.81160238	      0.00000000	    -54.70588259	     -1.16918229	      0.78861645	     23.34239132	    -10.97521128	     -7.77560084	     35.27930515	     84.19597835	     20.00370901	    -14.20867208	     10.85982934	     36.98565910	     91.99741931
      2.75000000	     -3.65001309	      2.28752798	     -1.07629673	     -0.64339508	      0.75825154	     -0.18230855	     52.04249456	     -9.16134896	     -1.74137136	     81.45528181	     34.03220223	     -7.34490672	      0.00000000	     48.19225812	     -8.56709095	    -11.27552497	     78.72974187	     36.05162980	      3.73473886	      0.00000000	    -55.09686116	     -1.24652846	      0.79821965	     23.56778295	    -11.06387302	     -7.79950844	     35.34046817	     84.25382431	     20.26561517	    -14.26716837	     10.83458713	     36.93030642	     92.04606722
      2.76666670	     -3.71005552	      2.29987692	     -1.08536346	     -0.64154644	      0.75780953	     -0.18166647	     52.03578798	     -9.13956190	     -1.74312859	     81.46740058	     34.03070433	     -7.34580720	      0.00000000	     48.14638873	     -8.54831824	    -11.26412036	     78.75384842	     36.05914254	      3.73541909	      0.00000000	    -55.11918125	     -1.24559844	      0.79619532	     23.56213313	    -11.06571956	     -7.79957782	     35.33794906	     84.25595969	     20.26842420	    -14.26979933	     10.83343857	     36.92446552	     92.04761915
      2.78333330	     -3.34112874	      2.45963504	     -1.41674123	     -0.63974457	      0.76112376	     -0.18153209	     51.32568000	     -8.87316451	     -1.32730011	     81.02966224	     33.96510264	     -7.60137877	      0.00000000	     47.22044883	     -8.60193380	    -11.64786839	     78.35201897	     36.55005322	      4.09050638	      0.00000000	    -55.59395707	     -1.69615421	      0.89222687	     23.31320821	    -11.13676833	     -7.75396020	     35.46216799	     84.59215224	     20.53951262	    -14.18709144	     10.65069791	     36.21587138	     92.26310242
      2.80000000	     -3.50680490	      2.46960476	     -1.41902579	     -0.64090825	      0.76366771	     -0.18197391	     51.08417568	     -8.74309540	     -1.33563427	     80.27305534	     34.02865340	     -7.58695968	      0.00000000	     47.12664437	     -8.54563655	    -11.74994586	     77.84443011	     36.42337174	      4.11433059	      0.00000000	    -55.29342263	     -1.75804889	      0.85424048	     22.96538786	    -11.11691604	     -7.74986896	     35.42707813	     84.62625099	     20.33443419	    -14.20387743	     10.64506619	     36.14420543	     92.28646194
      2.81666670	     -3.27971768	      2.45569647	     -1.50759430	     -0.63954634	      0.76787669	     -0.18190023	     50.25191184	     -8.55332259	     -1.27475814	     79.39053793	     33.99295927	     -7.72674592	      0.00000000	     46.35689265	     -8.55599837	    -11.88841438	     77.19908477	     35.73845313	      3.79898851	      0.00000000	    -55.14158952	     -1.88234598	      1.09938096	     22.19372495	    -11.20557139	     -7.79852847	     35.98332208	     85.10506670	     20.20626641	    -13.96126853	     10.27315448	     35.89737665	     92.57575696
      2.83333330	     -3.39668157	      2.36932887	     -1.52068501	     -0.63927012	      0.76951041	     -0.18192138	     49.74436969	     -8.35654501	     -1.31170034	     78.42960344	     34.15462289	     -7.71192704	      0.00000000	     46.07291058	     -8.60124855	    -11.85452806	     76.70248966	     35.31706157	      3.84314006	      0.00000000	    -54.39948555	     -1.83352877	      1.17447670	     21.51533953	    -11.14784806	     -7.83260419	     36.02234472	     85.28838477	     19.78795743	    -13.96033945	     10.15897138	     35.85290050	     92.69595856
      2.85000000	     -3.53654766	      2.33126265	     -1.54931495	     -0.63808065	      0.77341540	     -0.18235084	     49.14525239	     -8.28128399	     -1.38808404	     77.37755945	     34.04563149	     -7.68951377	      0.00000000	     45.75627499	     -8.52927208	    -11.85829084	     75.99473723	     35.11523357	      3.86474067	      0.00000000	    -53.50603879	     -1.81918825	      1.19582859	     20.82350974	    -11.05585359	     -7.81558186	     35.96854906	     85.35637183	     19.26259925	    -13.93635666	     10.12805943	     35.79549837	     92.73741802
      2.86666670	     -3.61009800	      2.15336402	     -1.53107137	     -0.63648301	      0.78247222	     -0.18206679	     48.09458731	     -7.97920384	     -1.54225903	     75.69126481	     33.34870087	     -8.03688013	      0.00000000	     44.96145366	     -8.39898047	    -11.72034839	     74.56959072	     34.28505431	      3.54860736	      0.00000000	    -52.68155527	     -1.70159243	      1.42357420	     20.00178964	    -11.10881297	     -7.81409745	     36.36711473	     85.83880670	     18.81571502	    -13.70995819	      9.56128139	     35.87325793	     92.99293989
      2.88333330	     -3.94082274	      2.10985377	     -1.66438708	     -0.63633105	      0.78957139	     -0.18240350	     47.43434849	     -7.79434783	     -1.67110079	     74.04688838	     32.72244674	     -7.77589180	      0.00000000	     44.20462726	     -8.25683223	    -11.83352946	     72.78688087	     33.69795555	      3.78181387	      0.00000000	    -51.36498968	     -1.69882533	      1.43311968	     19.38854970	    -11.02894314	     -7.78175125	     36.37279934	     85.95655634	     18.23753128	    -13.66336740	      9.47938952	     35.81758557	     93.06238098
      2.90000000	     -4.08565193	      1.91583046	     -1.59861551	     -0.63572059	      0.79571902	     -0.18173207	     46.30582070	     -7.46365976	     -1.93795399	     72.00416568	     32.11690438	     -7.92452942	      0.00000000	     43.49194606	     -8.15988088	    -11.72350114	     71.08430928	     32.54314180	      3.21538080	      0.00000000	    -50.35918149	     -1.49744797	      1.46857331	     18.75890980	    -10.98710462	     -7.67023228	     36.60384067	     86.39290556	     17.82095762	    -13.58989760	      9.05177615	     35.87030261	     93.30785797
